<?xml version="1.0" encoding="UTF-8"?>
<svg width="20" height="11" version="1.1" viewBox="0 0 5 3" xmlns="http://www.w3.org/2000/svg">
 <g transform="translate(.1 -2)">
  <path d="m-0.1 3c-5e-8 0.5 0.3 0.9 0.7 1 0.4 0.2 0.9 0.2 1 0 0.4-0.2 0.7-0.7 0.7-1 0 0.5-0.3 0.9-0.7 1-0.4 0.2-0.9 0.2-1 0-0.4-0.2-0.7-0.7-0.7-1m5 1e-7c0-0.7-0.6-1-1-1-0.7-1e-7 -1 0.6-1 1 2e-7 -0.7 0.6-1 1-1 0.7 0 1 0.6 1 1" fill="none" stroke="#a40000" stroke-dashoffset="2" stroke-linecap="round" stroke-linejoin="round" stroke-width=".2"/>
 </g>
</svg>
