<?xml version="1.0" encoding="UTF-8"?>
<svg width="40.88mm" height="40.88mm" enable-background="new" version="1.1" viewBox="0 0 40.88 40.88" xmlns="http://www.w3.org/2000/svg" xmlns:xlink="http://www.w3.org/1999/xlink">
 <defs>
  <filter id="filter1076" x="-.0468" y="-.0468" width="1.094" height="1.094" color-interpolation-filters="sRGB">
   <feGaussianBlur stdDeviation="0.71922228"/>
  </filter>
  <radialGradient id="radialGradient1103" cx="32.4" cy="28.73" r="18.44" gradientTransform="matrix(1.195e-7 2.217 -2.217 1.455e-5 94.19 -50.38)" gradientUnits="userSpaceOnUse">
   <stop stop-color="#fff" stop-opacity=".188" offset="0"/>
   <stop stop-color="#fff" stop-opacity="0" offset="1"/>
  </radialGradient>
  <filter id="filter1119" color-interpolation-filters="sRGB">
   <feBlend in2="BackgroundImage" mode="soft-light"/>
  </filter>
  <linearGradient id="linearGradient1155" x1="103.5" x2="103.5" y1="42.87" y2="47.04" gradientUnits="userSpaceOnUse">
   <stop stop-color="#5c3566" stop-opacity="0" offset="0"/>
   <stop stop-color="#5c3566" offset="1"/>
  </linearGradient>
  <linearGradient id="linearGradient1222" x1="103.5" x2="103.5" y1="42.87" y2="47.04" gradientTransform="translate(16.81 -23.47)" gradientUnits="userSpaceOnUse">
   <stop stop-color="#ad7fa8" stop-opacity="0" offset="0"/>
   <stop stop-color="#ad7fa8" offset="1"/>
  </linearGradient>
  <linearGradient id="linearGradient1224" x1="103.5" x2="103.5" y1="37.05" y2="47.04" gradientUnits="userSpaceOnUse">
   <stop stop-color="#ad7fa8" offset="0"/>
   <stop stop-color="#ad7fa8" offset="1"/>
  </linearGradient>
 </defs>
 <g display="none">
  <g transform="translate(-84.56 -8.031)" fill="#6d6d6d" filter="url(#filter1076)">
   <rect x="86.56" y="10.22" width="36.88" height="36.88" ry="6" fill="#6d6d6d"/>
  </g>
 </g>
 <g transform="translate(-30.49 -21.45)">
  <g transform="translate(-54.07 13.23)">
   <rect x="86.56" y="10.22" width="36.88" height="36.88" ry="6" fill="#75507b"/>
  </g>
  <g transform="matrix(.9875 0 0 .9875 -52.75 13.59)" fill="none" stroke="url(#linearGradient1155)">
   <rect x="86.56" y="10.22" width="36.88" height="36.88" ry="6" fill="none" stroke="url(#linearGradient1155)" stroke-dashoffset="1.999" stroke-linejoin="round" stroke-width=".5"/>
  </g>
  <g transform="matrix(.9875 0 0 -.9875 -69.34 46.96)" fill="none" stroke="url(#linearGradient1224)">
   <rect x="103.4" y="-13.25" width="36.88" height="36.88" ry="6" fill="none" stroke="url(#linearGradient1222)" stroke-dashoffset="1.999" stroke-linejoin="round" stroke-width=".5"/>
  </g>
 </g>
 <g>
  <path d="m8.152 32.46 6.515 6.515 18.74-0.03341c4.648-0.8401 5.541-4.395 5.546-6.548v-11.29l-13.63-13.63-1.575 0.8473v7.938l3.969 7.541h-14.55z" fill="#2e3436" fill-opacity=".1835"/>
 </g>
 <g>
  <g transform="translate(-5.355 -8.22)">
   <path d="m22.49 16.54v7.938l-7.938 15.88h22.49l-7.938-15.88v-7.938l1.058 4.3e-5h-8.731z" fill="none" stroke="#fff" stroke-linecap="round" stroke-linejoin="round" stroke-width="2"/>
   <path d="m18.52 32.02-3.969 7.937h22.49l-3.969-7.937zm10.32 0.8976a1.677 1.677 0 0 1 1.677 1.677 1.677 1.677 0 0 1-1.677 1.677 1.677 1.677 0 0 1-1.677-1.677 1.677 1.677 0 0 1 1.677-1.677zm-5.717 0.7798a2.835 2.835 0 0 1 2.835 2.834 2.835 2.835 0 0 1-2.835 2.835 2.835 2.835 0 0 1-2.835-2.835 2.835 2.835 0 0 1 2.835-2.834z" fill="#fff"/>
   <circle cx="27.73" cy="29.34" r="1.819" fill="#fff"/>
  </g>
 </g>
 <g filter="url(#filter1119)">
  <rect transform="translate(-30.49 -21.45)" x="32.49" y="23.45" width="36.88" height="36.88" ry="6" fill="url(#radialGradient1103)"/>
 </g>
</svg>
